<?xml version="1.0" standalone="no"?>
<!DOCTYPE svg PUBLIC "-//W3C//DTD SVG 1.1//EN" "http://www.w3.org/Graphics/SVG/1.1/DTD/svg11.dtd" >
<!--
2016-10-12: Created with FontForge (http://fontforge.org)
-->
<svg xmlns="http://www.w3.org/2000/svg" xmlns:xlink="http://www.w3.org/1999/xlink" version="1.1">
<metadata>
Created by FontForge 20160407 at Wed Oct 12 11:55:41 2016
 By Jérémie

</metadata>
<defs>
<font id="dior-icons" horiz-adv-x="512" >
  <font-face 
    font-family="icons"
    font-weight="400"
    font-stretch="normal"
    units-per-em="512"
    panose-1="2 0 5 9 0 0 0 0 0 0"
    ascent="448"
    descent="-64"
    bbox="-0.0932309 -64 553.088 448.374"
    underline-thickness="25.6"
    underline-position="-51.2"
    unicode-range="U+F101-F124"
  />
    <missing-glyph />
    <glyph glyph-name="arrow-down" unicode="&#xf101;" 
d="M0 319.996h511.999l-256.004 -255.992z" />
    <glyph glyph-name="arrow-thin" unicode="&#xf102;" 
d="M380.97 -64l-263.592 256.008l263.592 255.992l13.6553 -14.0527l-249.096 -241.939l249.096 -241.944z" />
    <glyph glyph-name="arrow" unicode="&#xf103;" 
d="M404.448 413.691l-228.213 -221.684l228.213 -221.692l-33.3301 -34.3154l-263.565 256.008l263.565 255.992z" />
    <glyph glyph-name="bell" unicode="&#xf104;" 
d="M278.39 291.481c95.3701 -11.0791 169.396 -92.1289 169.38 -190.464h-383.55c0 98.335 74.041 179.385 169.416 190.464v27.7041h10.1992v27.0645h-34.4473c-3.43555 0 -6.21582 2.78516 -6.21582 6.23145c0 3.43555 2.78027 6.23633 6.21582 6.23633h93.2559
c3.43555 0 6.2207 -2.80078 6.2207 -6.23633c0 -3.44629 -2.78516 -6.23145 -6.2207 -6.23145h-34.4531v-27.0645h10.1992v-27.7041zM490.491 58.4805c0 -18.335 34.585 -33.1982 16.2402 -33.1924h-501.463c-18.335 0 16.2354 14.8574 16.2354 33.1924
c0 18.3604 14.874 33.2188 33.1934 33.2188h402.601c18.335 0 33.1934 -14.8838 33.1934 -33.2188z" />
    <glyph glyph-name="card" unicode="&#xf105;" 
d="M0 32v192h512v-192c0 -17.6641 -14.3359 -32 -32 -32h-448c-17.6641 0 -32 14.3359 -32 32zM64 160v-32h192v32h-192zM480 384c17.6641 0 32 -14.3359 32 -32v-64h-512v64c0 17.6641 14.3359 32 32 32h448z" />
    <glyph glyph-name="check" unicode="&#xf106;" 
d="M162.909 78.5459l308.363 308.363l40.7275 -40.7275l-349.091 -349.091l-162.909 162.909l40.7275 40.7275z" />
    <glyph glyph-name="cross" unicode="&#xf107;" 
d="M501.5 -64c-2.7002 0 -5.40039 1 -7.5 3.09961l-490.9 490.9c-4.09961 4.09961 -4.09961 10.7998 0 14.9004c4.10059 4.09961 10.8008 4.09961 14.9004 0l490.9 -490.9c4.09961 -4.09961 4.09961 -10.7998 0 -14.9004c-2 -2.09961 -4.7002 -3.09961 -7.40039 -3.09961z
M10.5 -64c-2.7002 0 -5.40039 1 -7.5 3.09961c-4.09961 4.10059 -4.09961 10.8008 0 14.9004l491 490.9c4.09961 4.09961 10.7998 4.09961 14.9004 0c4.09961 -4.10059 4.09961 -10.8008 0 -14.9004l-490.9 -490.9c-2.09961 -2.09961 -4.7998 -3.09961 -7.5 -3.09961z" />
    <glyph glyph-name="fullscreen" unicode="&#xf108;" 
d="M12.708 446.766l141.347 -13.4434s18.8125 0.583984 8.29199 -9.89355c-10.5654 -10.5869 -36.0674 -36.0674 -36.0674 -36.0674s6.21289 -6.25684 15.8037 -15.6963c27.1475 -27.2344 76.6152 -76.7021 96.749 -96.8359c0 0 6.88477 -4.0918 -1.38574 -12.3398
c-8.29102 -8.37793 -44.8564 -44.7705 -50.7881 -50.7451c-5.80176 -5.91016 -10.2832 -1.23438 -10.2832 -1.23438c-19.5713 19.5713 -70.793 70.7061 -97.0742 97.0312c-8.48633 8.57324 -14.0293 14.1367 -14.0293 14.1367s-20.5225 -20.458 -33.3604 -33.3174
c-12.7734 -12.8164 -12.7305 6.47266 -12.7305 6.47266s-17.8389 126.646 -17.8389 141.909c0 10.9111 11.3662 10.0234 11.3662 10.0234zM500.569 -63.0908l-141.217 13.4443s-18.8564 -0.541016 -8.37793 9.98047c10.5215 10.4775 36.0674 36.0664 36.0674 36.0664
s-6.21387 6.1709 -15.7393 15.6523c-27.1914 27.2783 -76.6592 76.7031 -96.793 96.9668c0 0 -6.9707 3.89648 1.34277 12.21c8.3125 8.31348 44.8135 44.8135 50.7881 50.7451c5.86719 5.95312 10.3271 1.27734 10.3271 1.27734
c19.5273 -19.6143 70.792 -70.792 97.0303 -97.0312c8.50879 -8.55078 14.0723 -14.1582 14.0723 -14.1582s20.5449 20.502 33.3613 33.3613c12.7725 12.8164 12.7725 -6.5166 12.7725 -6.5166s17.7959 -126.733 17.7959 -141.779
c0.0214844 -11.0625 -11.4307 -10.2188 -11.4307 -10.2188zM0.0214844 -51.9629l13.3145 141.39s-0.498047 18.8135 10.0664 8.29199c10.4785 -10.5215 36.0244 -36.1113 36.0244 -36.1113s6.16992 6.21387 15.6953 15.7607l96.8799 96.8799
c0 0 3.9834 6.84082 12.2969 -1.42871c8.29102 -8.37891 44.8135 -44.8574 50.7451 -50.7891c5.91016 -5.86719 1.19043 -10.3262 1.19043 -10.3262c-19.6143 -19.5713 -70.7061 -70.793 -96.9873 -97.1182c-8.55176 -8.50781 -14.1152 -14.0283 -14.1152 -14.0283
s20.458 -20.502 33.2744 -33.2744c12.8164 -12.8594 -6.42969 -12.7734 -6.42969 -12.7734s-126.647 -17.8389 -141.823 -17.8389c-11.0625 -0.0214844 -10.1318 11.3662 -10.1318 11.3662zM509.878 435.941l-13.3135 -141.347s0.498047 -18.8125 -9.98047 -8.29102
c-10.6084 10.6074 -36.1104 36.0234 -36.1104 36.0234l-15.6953 -15.6953c-27.1914 -27.1914 -76.7031 -76.6592 -96.8799 -96.8359c0 0 -3.9834 -6.88477 -12.2969 1.42871c-8.31348 8.3125 -44.7705 44.7266 -50.7881 50.6582
c-5.8457 6.04004 -1.23438 10.4355 -1.23438 10.4355c19.6143 19.5703 70.792 70.749 97.0742 96.9873c8.57324 8.55176 14.0723 14.1152 14.0723 14.1152s-20.415 20.458 -33.2754 33.3184c-12.8154 12.8154 6.47363 12.6855 6.47363 12.6855
s126.625 17.9258 141.845 17.9258c11.041 0 10.1094 -11.4092 10.1094 -11.4092z" />
    <glyph glyph-name="help" unicode="&#xf109;" 
d="M193.024 296.401c-1.17871 -1.27539 -3.09766 -3.33984 -4.2832 -4.6084c1.81543 1.95508 4.2832 4.6084 4.2832 4.6084zM281.903 279.947c-6.63379 8.19238 -17.6416 12.2881 -32.9795 12.2891c-18.9902 0 -32.1162 -7.05176 -39.377 -21.1318
c-4.07227 -7.84277 -6.42383 -19.1523 -6.98242 -33.9316h-30.3477c0 24.5527 6.93555 44.2871 20.8066 59.2295c13.8701 14.9414 32.9072 22.4111 57.1113 22.4111c22.3887 0 40.3086 -6.37598 53.7832 -19.1768c13.4756 -12.7998 20.2002 -29.1377 20.2002 -49.0117
c0 -12.0557 -2.49023 -21.8301 -7.42383 -29.3242s-14.8945 -18.5244 -29.9053 -33.0703c-10.915 -10.5898 -17.9902 -19.5254 -21.2246 -26.8564s-4.86328 -18.1533 -4.86328 -32.4668h-30.3477c0 16.2451 1.93164 29.3477 5.79492 39.2852
c3.86328 9.96094 12.3115 21.3408 25.3906 34.1875l13.6377 13.4746c4.09668 3.86328 7.37695 7.91309 9.86719 12.1016c4.53809 7.40039 6.81934 15.0576 6.81934 23.0166c0 11.124 -3.30469 20.7832 -9.95996 28.9746zM512 192c0 -141.382 -114.618 -256 -256 -256
s-256 114.618 -256 256s114.618 256 256 256s256 -114.618 256 -256zM23.2725 192c0 -128.535 104.192 -232.728 232.728 -232.728s232.728 104.192 232.728 232.728s-104.192 232.728 -232.728 232.728s-232.728 -104.192 -232.728 -232.728zM229.655 100.632h33.9316
v-35.4443h-33.9316v35.4443z" />
    <glyph glyph-name="house" unicode="&#xf10a;" 
d="M63.999 -31.9941v191.998h-63.999l256.003 255.996l255.99 -255.996h-63.9922v-191.998h-160.005v127.999h-64.0117v-127.999h-159.985z" />
    <glyph glyph-name="letter" unicode="&#xf10b;" 
d="M0 356.009h512v-328.018h-512v328.018zM470.199 333.804h-428.414l214.223 -178.509zM22.2207 50.2129l467.559 -0.0166016v270.999l-233.771 -194.804l-233.787 194.804v-270.982z" />
    <glyph glyph-name="line" unicode="&#xf10c;" 
d="M0 207.504h512v-31.0078h-512v31.0078z" />
    <glyph glyph-name="link" unicode="&#xf10d;" 
d="M472.21 216.02l-96.1143 -96.082c-53.0469 -53.0791 -139.104 -53.0791 -192.16 0c-8.35645 8.33301 -14.8945 17.7236 -20.6357 27.4072l44.6582 44.6553c2.12305 2.14062 4.74414 3.36719 7.24902 4.8125c3.08789 -10.5479 8.47754 -20.5342 16.7734 -28.8311
c26.4922 -26.5137 69.6006 -26.4766 96.0771 0l96.084 96.0801c26.5117 26.5107 26.5117 69.6084 0 96.0986c-26.4785 26.4902 -69.5752 26.4902 -96.084 0l-34.168 -34.2041c-27.7266 10.7959 -57.5986 13.6982 -86.6787 9.4375l72.8076 72.8057
c53.0791 53.0684 139.112 53.0684 192.191 0c53.0527 -53.0664 53.0527 -139.114 0 -192.18zM218.127 58.0273c27.7031 -10.7764 57.583 -13.7031 86.6787 -9.41699l-72.8262 -72.8213c-53.0684 -53.0518 -139.112 -53.0518 -192.181 0
c-53.0625 53.0801 -53.0625 139.103 0 192.187l96.0811 96.084c53.0684 53.0684 139.133 53.0684 192.175 0c8.36133 -8.34277 14.9326 -17.6992 20.6367 -27.4209l-44.6553 -44.6377c-2.12207 -2.125 -4.71094 -3.31445 -7.23047 -4.7793
c-3.11621 10.5352 -8.51172 20.5195 -16.7881 28.7979c-26.4902 26.5088 -69.5713 26.5088 -96.083 0l-96.0947 -96.082c-26.4922 -26.5029 -26.4922 -69.6006 0 -96.1143c26.4941 -26.4766 69.6045 -26.4766 96.0947 0z" />
    <glyph glyph-name="lock" unicode="&#xf10e;" 
d="M436.224 19.9678c0 -39.5944 -19.8825 -59.3916 -59.6475 -59.3916h-241.408c-39.5944 0 -59.3916 19.7972 -59.3916 59.3916v159.232c0 36.5228 16.8958 56.1494 50.6875 58.8799v55.5518c0 35.6693 12.5439 66.1335 37.6318 91.3926
c25.2591 25.429 55.8939 38.1436 91.9043 38.1436s66.6452 -12.7145 91.9043 -38.1436c25.0879 -25.0885 37.6318 -55.5527 37.6318 -91.3926v-55.5518c33.7917 -2.73047 50.6875 -22.3571 50.6875 -58.8799v-159.232zM333.312 370.688
c-21.3333 21.3333 -47.1038 32 -77.3115 32s-55.9782 -10.7523 -77.3115 -32.2568v0.256836c-21.1628 -21.1628 -31.7441 -46.8483 -31.7441 -77.0566v-55.04h218.111v55.04c0 30.0378 -10.5814 55.6377 -31.7441 76.7998v0.256836zM224 136.96
c-8.02148 -8.5332 -12.0322 -18.7731 -12.0322 -30.7197c0 -12.459 4.2666 -22.8698 12.7998 -31.2324c8.875 -8.5332 19.2858 -12.7998 31.2324 -12.7998s22.1012 4.09603 30.4639 12.2881c0.170573 0.511719 0.597331 1.02376 1.28027 1.53613
c8.36263 8.19206 12.5439 18.2614 12.5439 30.208s-4.2666 22.3571 -12.7998 31.2314c-8.70443 8.70443 -19.2005 13.0566 -31.4883 13.0566c-11.9466 0 -22.1012 -4.18132 -30.4639 -12.5439z" />
    <glyph glyph-name="long-arrow" unicode="&#xf10f;" 
d="M512 199.681v-15.3535l-488.041 -0.0078125l117.406 -117.406l-10.8555 -10.8545l-130.51 130.503v10.8535l130.51 130.526l10.8555 -10.8545l-117.406 -117.414z" />
    <glyph glyph-name="phone" unicode="&#xf110;" 
d="M500.521 43.3701c15.7051 -15.7568 15.2363 -41.8398 -1.05273 -58.1641l-22.5762 -22.1074l-0.487305 0.432617c-9.52832 -7.45605 -20.5176 -13.6914 -32.2734 -18.2832c-10.9424 -4.25 -21.71 -6.93457 -32.9443 -8.27734
c-5.15918 -0.546875 -124.734 -11.7559 -273.115 136.615c-107.344 107.345 -146.896 186.45 -136.456 273.006c1.21973 10.7939 3.88574 21.5654 8.16992 32.8535c4.64648 11.8584 10.8906 22.8555 18.3623 32.3906l-0.608398 0.604492l22.2842 22.4121
c16.3232 16.3271 42.416 16.8047 58.1289 1.09473l79.0703 -79.0879c15.7129 -15.7314 15.2627 -41.8057 -1.06055 -58.1328l-13.1445 -13.1611l-26.7354 -26.6963c1.39551 -2.44141 2.80957 -5.0127 4.28516 -7.67969c13.9805 -25.1719 33.1025 -59.6553 69.4414 -95.9883
c36.2305 -36.2578 70.6611 -55.3623 95.8164 -69.3008c2.16504 -1.21484 5.68652 -3.1748 7.86133 -4.37305l39.8359 39.8271c16.2979 16.3037 42.3789 16.7803 58.1279 1.09473z" />
    <glyph glyph-name="pin" unicode="&#xf111;" 
d="M255.999 448c108.62 0 196.984 -88.3643 196.977 -196.977c0 -102.663 -163.491 -279.425 -182.136 -299.248l-14.8408 -15.7754l-14.8418 15.7754c-18.6396 19.8398 -182.134 196.585 -182.134 299.248c0 108.612 88.3643 196.977 196.976 196.977zM255.999 169.509
c44.9502 0 81.5068 36.5654 81.5068 81.5078c0 44.9404 -36.5566 81.5068 -81.5068 81.5068c-44.9414 0 -81.5078 -36.5645 -81.5078 -81.5068c0 -44.9414 36.5664 -81.5078 81.5078 -81.5078z" />
    <glyph glyph-name="play" unicode="&#xf112;" 
d="M54.8574 448l402.285 -256l-402.285 -256v512z" />
    <glyph glyph-name="plus" unicode="&#xf113;" 
d="M512 202.309v-20.624h-245.689v-245.685h-20.6299v245.685h-245.681v20.624h245.681v245.691h20.6299v-245.691h245.689z" />
    <glyph glyph-name="question" unicode="&#xf114;" 
d="M256.002 448c84.7676 0 153.686 -63.2588 153.688 -141.012v-11.1455c0 -68.2041 -34.7324 -104.952 -62.6699 -134.465c-28.2275 -29.8418 -52.5879 -55.6504 -52.5879 -117.619h-76.8018c0 92.5479 40.8145 135.713 73.583 170.347
c25.1309 26.5469 41.6865 44.1123 41.6865 81.7373v11.1455c0 35.4004 -34.4834 64.2266 -76.8975 64.2266c-42.418 0 -76.9023 -28.8262 -76.9023 -64.2266h-76.7871c0 77.7529 68.9238 141.012 153.689 141.012zM216.313 0.821289h80.3779v-64.8213h-80.3779v64.8213z" />
    <glyph glyph-name="quotes" unicode="&#xf115;" 
d="M114.347 432.64c40.1064 32.4268 106.667 6.82715 124.587 -48.6396c23.8936 -72.5332 -37.5469 -198.827 -128 -261.12c-59.7334 -41.8135 -89.6006 -52.9062 -101.547 -38.3994c-6.82715 7.67969 2.55957 17.9199 35.8398 40.1064
c83.627 55.4668 104.96 118.613 57.1738 172.373c-38.4004 43.5205 -33.2803 99.8398 11.9463 135.68zM378.88 432.64c40.1064 32.4268 106.667 6.82715 124.587 -48.6396c23.8936 -72.5332 -37.5469 -198.827 -128 -261.12
c-59.7334 -41.8135 -89.6006 -52.9062 -101.547 -38.3994c-6.82617 7.67969 2.56055 17.9199 35.8398 40.1064c83.627 55.4668 104.96 118.613 57.1738 172.373c-38.4004 43.5205 -33.2803 99.8398 11.9463 135.68z" />
    <glyph glyph-name="refresh" unicode="&#xf116;" 
d="M23.9629 127.1c-0.113281 0.630859 -0.206055 1.66309 -0.206055 2.30469c0 6.00195 4.79492 11.7354 10.7031 12.7969c0.644531 0.119141 1.7002 0.21582 2.35645 0.21582c5.91699 0 11.627 -4.71582 12.7451 -10.5273
c7.59277 -40.8789 39.7568 -95.5635 71.7949 -122.064c31.7461 -26.3203 90.9795 -47.6826 132.218 -47.6826c0.143555 0 0.375 0 0.517578 0.000976562c57.4365 0 109.538 23.1973 147.28 60.9395c37.5566 37.5566 60.9395 89.6572 60.9395 147.094
s-23.3828 109.538 -60.9395 147.28c-37.7422 37.5566 -89.8438 60.9395 -147.28 60.9395c-11.9697 0 -23.3828 -0.916016 -34.6104 -2.94629c-7.91016 -1.28711 -15.6465 -2.94629 -23.1973 -5.14941l30.9336 -24.6709c5.70703 -4.41895 6.62305 -12.7002 2.2041 -18.2217
c-2.11523 -2.73438 -6.63672 -4.9541 -10.0938 -4.9541c-2.5332 0 -6.1748 1.31055 -8.12793 2.9248l-50.6279 40.3174c-2.6543 2.16699 -4.80859 6.70703 -4.80859 10.1338c0 1.65527 0.584961 4.20801 1.30566 5.69824l25.5869 58.7236
c1.90039 4.25977 7.22949 7.7168 11.8945 7.7168c1.50488 0 3.8457 -0.490234 5.22461 -1.09375c6.62305 -2.76074 9.56934 -10.4971 6.62305 -17.1201l-14.7305 -33.8789c6.41895 1.81543 16.9775 4.12305 23.5684 5.14941
c10.6143 1.83105 27.9697 3.31738 38.7402 3.31738h0.103516h0.236328c53.4893 0 127.611 -30.6836 165.451 -68.4902c42.3467 -42.5322 68.4785 -101.071 68.4785 -165.688c0 -64.6152 -26.1436 -123.166 -68.4785 -165.501
c-42.5205 -42.3467 -101.071 -68.6641 -165.688 -68.6641c-56.7051 0 -108.795 20.251 -149.298 53.9453c-35.9316 29.8252 -72.1387 91.2705 -80.8193 137.154z" />
    <glyph glyph-name="scissors" unicode="&#xf117;" 
d="M197.485 421.181c26.8193 26.8193 63.3906 10.9717 88.9912 -37.79c23.1611 -43.8857 23.1611 -46.3242 3.65723 -82.8955c-34.1338 -58.5146 -28.0381 -92.6475 18.2852 -115.81c49.9814 -25.5996 195.048 -128 188.952 -134.095
c-2.4375 -2.43848 -48.7617 18.2852 -101.181 43.8857c-53.6377 26.8184 -97.5234 48.7617 -98.7432 48.7617c0 0 14.6289 -45.1045 32.915 -99.9619c19.5039 -54.8574 31.6953 -102.4 29.2568 -104.838c-8.5332 -8.53418 -52.4189 71.9238 -88.9902 158.476
c-36.5713 90.21 -60.9531 106.058 -128 81.6768c-48.7627 -17.0674 -96.3047 0 -125.562 43.8857c-15.8477 24.3809 -17.0664 34.1328 -4.87598 48.7617c23.1621 28.0381 70.7051 21.9424 125.562 -17.0664c28.0381 -19.5049 63.3906 -39.0098 78.0195 -43.8857
c25.5996 -7.31445 26.8193 -4.87695 19.5049 32.9141c-3.65723 21.9424 -18.2861 57.2949 -30.4766 76.7998c-25.5996 42.667 -28.0381 80.457 -7.31445 101.181zM263.314 394.362c-41.4482 62.1709 -85.334 12.1904 -49.9814 -56.0762
c12.1904 -24.3818 26.8193 -36.5723 40.2285 -34.1338c28.0381 4.87598 32.915 53.6377 9.75293 90.21zM96.3047 259.048c-43.8857 23.1621 -58.5146 23.1621 -68.2666 -2.43848c-14.6289 -36.5713 80.457 -86.5518 109.714 -57.2949
c13.4102 13.4092 -6.09473 42.666 -41.4473 59.7334zM280.381 167.619c0 7.31445 -4.87598 12.1904 -12.1904 12.1904c-6.09473 0 -12.1904 -4.87598 -12.1904 -12.1904c0 -6.0957 6.0957 -12.1904 12.1904 -12.1904c7.31445 0 12.1904 6.09473 12.1904 12.1904z" />
    <glyph glyph-name="search" unicode="&#xf118;" 
d="M506.312 380.871c65.9902 -76.2314 61.4395 -190.009 -9.10254 -259.413c-2.27539 -2.27539 -5.68945 -4.55176 -7.96484 -6.82715c-19.3418 -15.9287 -42.0977 -28.4443 -64.8535 -36.4082l-15.9287 -4.55176c-65.9912 -15.9287 -138.809 4.55176 -186.596 59.165
c-47.7861 54.6133 -59.1641 128.568 -34.1328 192.284l6.82617 14.791c11.3779 21.6182 26.1689 42.0977 45.5117 59.1641c2.27539 2.27637 5.68848 4.55176 7.96387 6.82715c78.5068 61.4395 192.285 51.2002 258.276 -25.0312zM452.836 154.453
c56.8887 48.9248 62.5771 134.258 13.6533 191.146c-50.0625 55.752 -135.396 61.4404 -192.285 12.5156c-55.751 -48.9238 -61.4395 -134.258 -12.5156 -191.146c48.9248 -55.751 134.258 -61.4395 191.147 -12.5156zM36.4092 -53.7598l-14.791 17.0664
c-7.96484 9.10254 -6.82715 22.7559 2.27539 30.7197l138.809 121.742l43.2354 -50.0615l-138.809 -121.742c-9.10254 -7.96484 -22.7559 -6.82715 -30.7197 2.27539z" />
    <glyph glyph-name="shopping-bag" unicode="&#xf119;" 
d="M0 321.113l200.348 -60.1045l111.305 52.3125v-326.121l-111.305 -51.2002l-200.348 60.1045v325.009zM200.348 261.009l-200.348 60.1045l101.287 47.8604l210.365 -55.6523zM212.591 419.061c-22.2607 27.8262 -52.3125 28.9395 -52.3125 28.9395
c-25.5996 2.22656 -46.748 -5.56543 -62.3301 -21.1475c-32.2783 -33.3916 -27.8262 -92.3828 -27.8262 -94.6094l32.2783 -7.79102c-1.11328 12.2432 1.1123 61.2178 18.9209 79.0264c8.90527 8.9043 20.0352 12.2432 36.7305 11.1299
c1.11328 0 16.6963 -1.1123 30.0527 -17.8086c15.582 -18.9219 18.9219 -53.4258 12.2432 -97.9473l32.2783 -8.9043c7.79102 55.6514 2.22656 101.286 -20.0352 129.112z" />
    <glyph glyph-name="social-facebook" unicode="&#xf11a;" 
d="M188.177 348.841c0 12.8799 -2.62207 99.1641 108.701 99.1582h78.5898v-89.7373h-57.8008c-11.4326 0 -23 -11.8486 -23 -20.6582v-58.9365h80.6895c-3.23242 -45.1914 -9.89941 -86.5234 -9.89941 -86.5234h-71.1914v-256.143h-106.089v256.15h-51.6445v86.1982
h51.6445v70.4912z" />
    <glyph glyph-name="social-google" unicode="&#xf11b;" 
d="M294.609 122.002c5.44043 -7.28027 9.84766 -15.9912 13.2324 -26.1553c3.38672 -10.1572 5.07812 -21.0732 5.07812 -32.7715c0 -32.8203 -14.3574 -61.7451 -43.0762 -86.7715c-31.1748 -26.8701 -74.2549 -40.3027 -129.224 -40.3027
c-12.1035 0 -24.3594 1.02539 -36.7695 3.07617c-12.4092 2.05078 -24.9219 5.4873 -37.5352 10.3047c-12.6143 4.82715 -23.7451 10.7676 -33.3848 17.8486c-9.6416 7.07324 -17.5381 16.2051 -23.6895 27.3799c-6.15137 11.1816 -9.23047 23.6426 -9.23047 37.3848
c0 12.5137 3.79688 26.3574 11.3867 41.5381c6.56445 13.1299 16.4092 24.458 29.5371 34c13.125 9.53711 27.9971 16.8213 44.6123 21.8447c16.6162 5.02637 32.5117 8.71875 47.6895 11.0781c15.1826 2.36035 30.5635 3.74316 46.1523 4.16016
c-13.1318 17.0244 -19.6904 32.3066 -19.6904 45.8457v0.0664062c0 1.99219 0.275391 5.20215 0.615234 7.16504c0.407227 2.36133 0.920898 4.35938 1.53516 5.99805c0.616211 1.63867 1.43555 3.84863 2.46387 6.61719s1.74121 4.97363 2.15234 6.61328
c-8.20605 -1.02344 -15.3838 -1.53809 -21.5381 -1.53809c-30.5625 0 -56.7676 10.0537 -78.6113 30.1514c-21.8428 20.0986 -32.7686 45.3301 -32.7686 75.6895c0 28.7168 9.74512 54.4092 29.2295 77.0762c19.4873 22.6621 43.4873 37.1768 71.9961 43.5352
c19.2754 4.11035 38.457 6.16406 57.5312 6.16406h134.451l-41.5381 -24.3086h-41.5332c14.5645 -9.22852 25.8447 -22.1543 33.8447 -38.7705c7.99902 -16.6123 12.001 -33.9473 12.001 -51.998c0 -15.1787 -2.36035 -28.665 -7.07324 -40.459
c-4.72168 -11.7969 -10.4629 -21.2812 -17.2266 -28.4639c-6.77344 -7.17969 -13.54 -13.792 -20.3076 -19.8457s-12.5117 -12.3076 -17.2285 -18.7695s-7.07715 -13.3838 -7.07715 -20.7715c0 -5.33203 1.69336 -10.5625 5.07715 -15.6895
c3.38379 -5.12598 7.79492 -10.0518 13.2285 -14.7656c5.43457 -4.7207 11.4346 -9.64746 18 -14.7744c6.56055 -5.12695 13.126 -10.8213 19.6904 -17.0762c5.44434 -5.18164 13.5068 -14.2783 17.9971 -20.3057zM175.998 233.84
c19.8984 0 34.3057 6.20508 43.2314 18.6133c8.92285 12.4102 13.3838 28.8789 13.3838 49.3936c0 12.3066 -1.69336 25.3857 -5.07715 39.2305c-2.81348 11.5059 -9.29199 29.4932 -14.459 40.1514c-6.25879 12.9229 -14.873 23.5889 -25.8477 31.999
c-10.9736 8.41113 -23.2295 12.6133 -36.7686 12.6133c-19.0762 0 -33.8467 -7.07715 -44.3057 -21.2314c-10.4619 -14.1543 -15.6934 -31.0771 -15.6934 -50.7676c0 -9.64258 1.17871 -19.7979 3.53906 -30.4609c2.36133 -10.6689 6.00098 -21.334 10.9229 -31.999
c4.92383 -10.668 10.668 -20.2568 17.2285 -28.7686c6.56348 -8.5127 14.5625 -15.4355 24 -20.7705s19.3848 -8.00293 29.8457 -8.00293zM261.07 2.7832c5.64258 9.63574 8.46387 20.918 8.45898 33.8359c0 4.31152 -0.460938 8.45996 -1.38281 12.4688
c-0.703125 3.08398 -2.00977 8.0459 -2.91699 11.0752c-1.0293 3.38477 -2.82129 6.9209 -5.38672 10.6211c-1.79688 2.57812 -4.69238 6.78027 -6.46191 9.37793c-1.74316 2.56348 -4.46387 5.58789 -8.15332 9.07617c-3.69434 3.48535 -6.51562 6.10059 -8.45898 7.84473
c-1.94824 1.74316 -5.23047 4.35547 -9.84473 7.84473c-4.61523 3.48828 -7.79688 5.84668 -9.53711 7.07227c-1.74512 1.23047 -5.12793 3.5918 -10.1553 7.08008c-5.02734 3.48926 -8.15234 5.63574 -9.38477 6.46191
c-3.48535 0.405273 -8.61426 0.611328 -15.3857 0.611328c-11.0752 0 -21.9492 -0.710938 -32.6133 -2.15039c-10.6641 -1.43359 -21.7402 -3.99316 -33.2275 -7.69336c-11.4883 -3.68359 -21.5381 -8.4043 -30.1533 -14.1504
c-8.61328 -5.73828 -15.6904 -13.4316 -21.2324 -23.0713c-5.53906 -9.64453 -8.30664 -20.6172 -8.30664 -32.9238c0 -13.9512 3.64062 -26.4092 10.9219 -37.3848c7.28125 -10.9746 16.8203 -19.5947 28.6143 -25.8447c11.7939 -6.25488 24.1543 -10.9277 37.0752 -14
c12.9199 -3.0752 25.9463 -4.61719 39.0752 -4.61719c12.1035 0 23.6406 1.2793 34.6152 3.84961c10.9746 2.56641 21.2812 6.56543 30.9219 12.0049c9.64355 5.43262 17.2832 12.9668 22.9189 22.6113zM433.228 369.233h78.7607v-39.3867h-78.7607v-78.7666h-39.3887
v78.7666h-78.7686v39.3867h78.7686v78.7666h39.3887v-78.7666z" />
    <glyph glyph-name="social-instagram" unicode="&#xf11c;" 
d="M492.672 428.663c12.8896 -12.8916 19.3262 -28.3271 19.3271 -46.3281v-380.667c0 -17.9941 -6.4375 -33.4424 -19.3311 -46.3301c-12.8896 -12.8896 -28.3398 -19.3379 -46.332 -19.3379h-380.665c-17.9971 0 -33.4424 6.44824 -46.3359 19.3379
c-12.8916 12.8877 -19.334 28.3359 -19.334 46.3301v380.667c0 17.9971 6.44336 33.4414 19.334 46.3281c12.8936 12.8906 28.335 19.3369 46.3359 19.3369h380.67c17.9951 0 33.4414 -6.44336 46.3311 -19.3369zM183.84 263.503
c-20.1133 -19.4463 -30.1699 -42.9473 -30.1699 -70.502c0 -27.5518 10.0566 -51.0527 30.1699 -70.4941s44.2783 -29.1738 72.5 -29.1738c28.4492 0 52.7168 9.72363 72.8311 29.1738c20.1143 19.4395 30.165 42.9424 30.165 70.4941
c0 27.5547 -10.0508 51.0566 -30.165 70.502c-20.1143 19.4414 -44.3906 29.167 -72.8311 29.167c-28.2227 0 -52.3906 -9.72559 -72.5 -29.167zM454.008 15.3291v-0.000976562h0.00292969v216.008h-45.0049c4.44238 -14.0059 6.67285 -28.5596 6.67285 -43.667
c0 -27.998 -7.11133 -53.832 -21.3359 -77.501c-14.2314 -23.6689 -33.5527 -42.3867 -57.9971 -56.1709c-24.4531 -13.7773 -51.1182 -20.6689 -80.0068 -20.6689c-43.7773 0 -81.2217 15.0596 -112.336 45.165c-31.1104 30.1182 -46.6641 66.5 -46.6641 109.177
c0 15.1074 2.22168 29.665 6.66406 43.667h-46.999v-216.008c0 -5.77246 1.94434 -10.6123 5.83594 -14.4951c3.88477 -3.88867 8.72266 -5.83301 14.499 -5.83301h356.327c5.56152 0 10.332 1.94434 14.3398 5.83301c3.99609 3.89062 6.00195 8.72266 6.00195 14.4951z
M454.008 313.004v54.9951c0 6.22266 -2.22266 11.6113 -6.67285 16.168c-4.44141 4.55566 -9.88477 6.83496 -16.333 6.83496h-57.998c-6.43945 0 -11.8896 -2.28027 -16.333 -6.83496c-4.44336 -4.55664 -6.66406 -9.94531 -6.66406 -16.168v-54.9951
c0 -6.44434 2.2207 -11.8896 6.66406 -16.333c4.44238 -4.44629 9.89258 -6.66797 16.333 -6.66797h57.998c6.44824 0 11.8906 2.2207 16.333 6.66797c4.45117 4.44336 6.67285 9.88867 6.67285 16.333z" />
    <glyph glyph-name="social-tumblr" unicode="&#xf11d;" 
d="M336.332 19.335c26.001 0 51.7754 8.44238 77.334 25.3398v-80.666c-22.666 -10.6689 -42.4473 -17.8926 -59.3359 -21.6719c-17.1123 -4.2207 -36.3301 -6.33691 -57.665 -6.33691c-23.333 0 -44 3.00391 -62.001 9.00488
c-17.3311 5.55078 -32.666 13.8838 -45.998 24.9912c-12.8867 11.3359 -21.666 22.998 -26.335 35.0029c-4.88477 11.999 -7.33203 29.8906 -7.33203 53.667v179.666h-56.665v72.332c20.2227 6.66406 37.4443 15.9971 51.668 28.002
c14.2217 12.2197 25.666 26.8877 34.334 43.9971c8.66602 17.3418 14.6621 39.1172 17.9971 65.3369h73.0039v-129.329h121.329v-80.3311h-121.328v-131.329c0 -30.2285 1.55078 -49.3418 4.6709 -57.3418c2.88867 -8.22266 8.65723 -14.8867 17.3281 -20.001
c11.1064 -6.88867 24.1113 -10.333 38.9951 -10.333z" />
    <glyph glyph-name="social-twitter" unicode="&#xf11e;" 
d="M512 350.738c-14.0459 -21.0518 -31.8975 -39.5439 -52.5332 -54.2627l0.351562 -13.5977c0 -138.789 -105.612 -298.823 -298.823 -298.823c-59.3174 0 -114.507 17.4043 -160.994 47.2549c8.22168 -0.927734 16.5732 -1.43945 25.0508 -1.43945
c49.207 0 94.5107 16.7324 130.439 44.8877c-45.9434 0.832031 -84.7207 31.1943 -98.0938 72.9463c6.43066 -1.2793 12.9902 -1.95117 19.7725 -1.95117c9.59863 0 18.876 1.31152 27.6748 3.67871c-48.0225 9.66309 -84.2402 52.1191 -84.2402 102.989v1.31152
c12.251 -6.8125 33.5645 -12.7178 47.5752 -13.1807c-28.1553 18.8115 -46.7119 50.9648 -46.7119 87.4072c0 19.2607 5.15137 37.3047 14.2061 52.79c51.7979 -63.541 129.191 -105.356 216.471 -109.74c-1.79199 7.67871 -2.7207 15.71 -2.7207 23.9316
c0 57.9727 47.0312 105.004 105.036 105.004c30.2354 0 57.4941 -12.7334 76.6582 -33.1777c23.9316 4.73535 46.3926 13.4707 66.7402 25.5c-7.87012 -24.4756 -24.4746 -45.0791 -46.167 -58.0693c17.333 2.05566 44.3516 9.4668 60.3086 16.541z" />
    <glyph glyph-name="social-wechat" unicode="&#xf11f;" 
d="M336.698 259.88h0.000976562c-75.1221 0 -134.446 -55.8066 -134.45 -124.566c0 -11.4346 1.78613 -22.457 4.87793 -32.9854c-4.87793 -0.376953 -9.79883 -0.632812 -14.7588 -0.632812c-19.7354 0 -35.6104 4.0166 -55.3887 7.91309l-55.2939 -27.5918
l15.8262 47.3486c-39.5996 27.5312 -63.2852 63.0312 -63.2852 106.253c0 74.8867 71.2158 133.855 158.142 133.855c77.7588 0 145.882 -47.1133 159.562 -110.526c-5.03027 0.558594 -10.1006 0.932617 -15.2314 0.932617zM251.669 302.546
c-11.8486 0 -23.7461 -7.79199 -23.749 -19.6436c0 -11.7939 11.9004 -19.6963 23.748 -19.6963c11.9053 0 19.7998 7.90234 19.7998 19.6963c0 11.8516 -7.8916 19.6436 -19.7988 19.6436zM140.996 263.21c11.8545 0 19.7393 7.89844 19.7393 19.6963
c0 11.8516 -7.88379 19.6436 -19.7393 19.6436c-11.8477 0 -23.8096 -7.7959 -23.8096 -19.6436c0 -11.7949 11.9619 -19.6963 23.8096 -19.6963zM481.032 137.203c0 -35.5078 -23.6494 -66.9277 -55.3896 -90.6348l11.8936 -39.3252l-43.3779 23.6357
c-15.8145 -3.94922 -31.6963 -7.8916 -47.4512 -7.8916c-75.2393 0 -134.507 51.1836 -134.507 114.216c0 62.9287 59.2715 114.223 134.507 114.223c71.0586 0 134.325 -51.2939 134.325 -114.223zM303.102 156.896c11.9609 0 19.7998 7.79199 19.7959 15.7461
c0 7.85254 -7.83789 15.7441 -19.7959 15.7441c-7.87402 0 -15.8223 -7.8916 -15.8223 -15.7441c0 -7.9541 7.94824 -15.7461 15.8223 -15.7461zM390.096 156.896c11.8477 0 19.792 7.79199 19.792 15.7461c0 7.85254 -7.94434 15.7441 -19.792 15.7441
c-7.83496 0 -15.7148 -7.8916 -15.7148 -15.7441c0 -7.9541 7.87988 -15.7461 15.7148 -15.7461z" />
    <glyph glyph-name="social-weibo" unicode="&#xf120;" 
d="M413.856 186.342c8.76465 -5.52051 16.3857 -13.2793 22.8555 -23.2861c6.48145 -9.99414 9.71289 -21.0918 9.71289 -33.2773c0 -12.9434 -3.52637 -26.2275 -10.5723 -39.8389c-7.04883 -13.6221 -17.4219 -26.6582 -31.1367 -39.1309
c-13.707 -12.4756 -29.75 -23.6631 -48.1279 -33.5615c-18.3701 -9.90332 -39.8906 -17.8018 -64.5469 -23.707c-24.6562 -5.90234 -50.4082 -8.85059 -77.2568 -8.85059c-26.8477 0 -53.0312 3.19141 -78.5469 9.56543c-25.5137 6.37891 -48.4131 15.2393 -68.6895 26.5645
c-20.2812 11.3281 -36.6055 25.7031 -48.9854 43.1289c-12.374 17.4258 -18.5625 36.4199 -18.5625 56.9814c0 21.9033 6.61328 45.2217 19.8477 69.9795c13.2334 24.7539 32.0381 49.3174 56.4102 73.6895c32.1826 32.1826 64.6943 54.6494 97.5352 67.4111
c32.8486 12.7578 56.3164 12.0918 70.4053 -1.99805c12.3789 -12.1885 14.2793 -32.085 5.71484 -59.6963c-0.761719 -2.66602 -0.859375 -4.56934 -0.287109 -5.71289s1.52539 -1.80957 2.85449 -1.99805c1.33105 -0.188477 2.71289 -0.143555 4.14453 0.144531
c1.42578 0.288086 2.71289 0.617188 3.84863 0.998047l1.71875 0.572266c26.4629 11.2324 49.8838 16.8516 70.2568 16.8516c20.3809 0 34.9395 -5.80859 43.7051 -17.4238c8.5625 -11.9961 8.5625 -28.9424 0 -50.8389
c-0.380859 -2.47559 -0.804688 -4.37793 -1.28418 -5.71094c-0.483398 -1.33105 -0.0507812 -2.52246 1.28418 -3.57227c1.32812 -1.04785 2.47559 -1.76074 3.42676 -2.1416c0.952148 -0.381836 2.57422 -0.950195 4.86133 -1.71582
c10.8516 -3.42676 20.6641 -7.90137 29.4141 -13.4258zM320.61 55.3691c27.8955 22.5703 40.5029 47.751 37.8398 75.5547c-1.71094 18.2783 -10.1807 34.4648 -25.416 48.5596c-15.2344 14.0898 -35.0908 24.4668 -59.5557 31.1309
c-24.4619 6.66406 -50.5957 8.66699 -78.3965 5.99805c-42.4609 -4.37891 -77.6406 -17.8486 -105.536 -40.418c-27.8955 -22.5645 -40.5127 -47.7441 -37.8438 -75.543c1.71289 -18.2822 10.1865 -34.4678 25.4199 -48.5635
c15.2305 -14.0908 35.084 -24.4639 59.5508 -31.1338c24.4658 -6.66504 50.6016 -8.66504 78.4023 -5.99707c42.46 4.37793 77.6396 17.8496 105.535 40.4121zM223.358 173.765c21.1348 -5.52246 36.2207 -16.8994 45.2705 -34.125
c9.04395 -17.2354 9.28125 -35.3691 0.71875 -54.415c-8.57617 -19.418 -23.6162 -33.7002 -45.1328 -42.8408c-21.5146 -9.14453 -42.8438 -10.2852 -63.9785 -3.43457c-20.375 6.47949 -34.416 18.5215 -42.1289 36.1357
c-7.71289 17.6123 -7.0918 35.4668 1.85742 53.5498c8.95117 17.7139 23.3711 30.9424 43.2715 39.7002c19.8984 8.75781 39.9404 10.5723 60.1221 5.42969zM192.796 81.2236c3.99902 6.47754 5.04395 13.043 3.1416 19.7061
c-1.9043 6.66211 -6.19141 11.4268 -12.8564 14.2793c-6.47461 2.66699 -13.4229 2.75977 -20.8525 0.28418c-7.4248 -2.47266 -13.1387 -6.84766 -17.1357 -13.1367c-4.18848 -6.47754 -5.42578 -12.9951 -3.71094 -19.5586
c1.71387 -6.57227 5.80664 -11.3799 12.2793 -14.4268c6.4707 -3.04688 13.5684 -3.28613 21.2803 -0.711914c7.71582 2.56738 13.665 7.09375 17.8545 13.5645zM219.642 115.791c1.52539 2.46777 1.85645 4.99805 1 7.56348c-0.859375 2.57031 -2.52539 4.33691 -5 5.28418
c-2.66699 0.953125 -5.38086 0.908203 -8.13965 -0.139648c-2.75879 -1.05176 -4.80566 -2.81055 -6.13867 -5.28906c-3.23535 -5.90332 -1.99707 -10.1816 3.71289 -12.8525c2.66406 -0.948242 5.42676 -0.904297 8.2832 0.144531
c2.85449 1.04688 4.95117 2.80957 6.28223 5.28906zM408.146 241.033c-2.0918 4.09375 -2.47949 8.33105 -1.13477 12.71c3.80566 11.998 1.52734 22.5664 -6.85449 31.7041c-8.38477 9.13867 -18.5625 12.4717 -30.5625 9.99609
c-4.57324 -0.950195 -8.85645 -0.188477 -12.8594 2.28613c-3.99414 2.47559 -6.37012 5.99805 -7.13086 10.5684c-0.955078 4.56934 -0.195312 8.80664 2.27637 12.708c2.47754 3.90332 5.99805 6.33203 10.5752 7.28516c11.4209 2.47461 22.75 1.95312 33.9854 -1.56934
c11.2295 -3.52441 20.8535 -9.76074 28.8506 -18.7119c7.99121 -8.94922 13.1807 -19.2812 15.5566 -30.9902c2.38867 -11.708 1.76562 -22.8984 -1.84863 -33.5586c-1.52441 -4.38184 -4.33496 -7.61914 -8.42969 -9.71094
c-4.09473 -2.09668 -8.3252 -2.47559 -12.708 -1.14355c-4.38184 1.52539 -7.61328 4.33203 -9.71582 8.42676zM509.121 291.02c4.85352 -24.0889 3.57031 -47.082 -3.85352 -68.9805c-1.71582 -5.1416 -4.9541 -8.94922 -9.71582 -11.4238
c-4.75879 -2.47559 -9.70898 -2.85352 -14.8525 -1.14355c-5.1416 1.71582 -8.94824 4.95117 -11.4199 9.71094c-2.47949 4.76074 -2.95215 9.71094 -1.43164 14.8545c5.33398 15.6133 6.28516 31.9902 2.85449 49.125c-3.42676 17.1396 -11.0508 32.1797 -22.8525 45.1289
c-11.8076 13.1396 -25.8994 22.2285 -42.2773 27.2754c-16.3721 5.04395 -32.8457 5.85352 -49.416 2.42871c-5.32715 -1.14355 -10.2812 -0.238281 -14.8447 2.71289c-4.57715 2.95117 -7.42773 7.0918 -8.56836 12.4238
c-1.14746 5.33203 -0.243164 10.2334 2.70801 14.7109c2.95117 4.47656 7.09375 7.28418 12.4277 8.42773c23.4277 4.9502 46.6523 3.85645 69.6895 -3.28516c23.0479 -7.14551 42.8496 -19.9512 59.4189 -38.4189c16.5664 -18.2783 27.2725 -39.4629 32.1338 -63.5469z" />
    <glyph glyph-name="social-youku" unicode="&#xf121;" 
d="M221.198 147.239v0c27.3662 -6.88672 27.3662 -6.88672 24.5381 -33.6846c-3.17773 -30.127 -11.8633 -37.9502 -42.2773 -38.0869c-40.8164 -0.183594 -45.6719 4.67676 -45.6475 45.9854c0.0166016 28.9658 0.208008 57.9316 0.106445 86.8965
c-0.015625 4.13184 1.81738 9.00195 -3.37305 13.4189c-4.51855 -8.00488 -4.2168 -16.2227 -5.29102 -23.9053c-6.39258 -45.6865 -26.6426 -84.4414 -57.6611 -118.114c-4.32422 -4.69336 -7.35254 -5.90039 -12.2529 -1.26758
c-3.95312 3.73633 -8.54004 6.80176 -13.5078 10.6816c-4.58789 -5.20605 2.79688 -16.8828 -11.1582 -16.0859c-18.8613 1.07617 -18.9375 -0.238281 -18.9375 18.915v92.2168c-2.58887 1.5332 -3.30273 -0.556641 -4.38184 -1.79785
c-4.07324 -4.68359 -6.61035 -14.8047 -11.5947 -13.542c-6.72559 1.7041 -11.96 9.35645 -17.79 14.5059c-4.35742 3.84961 -0.355469 6.7002 1.52441 9.37598c23.4111 33.3174 41.0752 69.4326 52.5996 108.468c2.05566 6.96191 4.44727 8.33301 11.5088 5.66602
c18.9756 -7.16797 21.0078 -7.62598 12.4766 -26.3691c-15.7676 -34.6416 -17.3193 -70.6191 -16.0879 -107.53c0.834961 -25.0615 0.160156 -50.1738 0.160156 -78.3613c27.3154 26.3242 45.2734 54.7959 53.9131 88.8613c2.36133 9.31055 2.95508 19.0547 4.97656 28.4688
c1.66797 7.77539 -1.49805 9.71973 -8.59961 9.43945c-9.64062 -0.379883 -19.3633 0.554688 -28.9492 -0.262695c-10.4639 -0.892578 -10.8281 4.91309 -10.6299 12.6396c0.185547 7.2207 -0.68457 14.5049 10.2852 12.6572
c0.893555 -0.150391 1.83984 -0.0742188 2.75488 -0.0107422c11.7432 0.816406 27.793 -5.18945 34.0693 2.56738c5.95801 7.3623 1.99316 22.7676 2.35449 34.6367c0.0830078 2.75684 0.0117188 5.51758 0.0117188 8.27637c0 18.1348 4.75781 21.6533 22.7236 18.1094
c6.05859 -1.19434 5.62891 -4.94824 5.62207 -9.04297c-0.0185547 -14.7119 0.311523 -29.4434 -0.34375 -44.1289c-0.37793 -8.4707 2.44238 -11.208 10.9131 -11.0264c22.5195 0.483398 45.0742 -0.392578 67.5771 0.391602
c11.123 0.386719 11.1826 -5.27148 11.4053 -13.5293c0.232422 -8.67871 -1.8418 -12.6211 -11.3848 -11.9873c-11.4443 0.760742 -22.9844 -0.0800781 -34.4688 0.270508c-6.55762 0.201172 -10.0264 -0.983398 -9.99023 -8.85449
c0.154297 -32.6377 -0.338867 -65.2793 -0.520508 -97.9199c-0.0478516 -8.70898 2.2373 -15.2939 12.957 -15.5791c10.8477 -0.289062 17.8076 3.35547 18.915 15.0039c1.04199 10.9609 2.24414 21.9072 3.45508 33.6348zM497.025 215.603h-0.000976562
c12.7383 -0.0576172 17.5107 -7.44336 13.5469 -19.9521c-1.76172 -5.55469 -5.78516 -3.47461 -8.94824 -3.51367c-16.5381 -0.203125 -33.0801 -0.0947266 -49.6201 -0.0947266v0.120117c-16.54 0 -33.1123 0.612305 -49.6094 -0.225586
c-10.1797 -0.516602 -9.66504 5.08789 -9.57324 11.9297c0.0888672 6.68848 -0.786133 13.3379 9.47559 12.2744c5.45508 -0.566406 11.0166 -0.0996094 16.5303 -0.0996094c22.6836 -0.000976562 22.751 0 22.2178 22.6123c-0.117188 5 2.26562 12.1748 -7.1377 11.248
c-7.27051 -0.71582 -16.7812 4.13184 -19.001 -9.0957c-0.977539 -5.83203 1.7334 -16.0635 -10.1426 -15.625c-13.8594 0.510742 -15.7266 3.08398 -13.252 16.6592c3.04199 16.6855 6.68359 33.3574 8.13672 50.2021c1.00586 11.6738 8.06738 7.32715 13.5029 7.07227
c5.98145 -0.279297 14.0293 0.771484 11.6855 -9.875c-0.59082 -2.68555 -0.844727 -5.44824 -1.49219 -8.11816c-1.1582 -4.77539 -0.751953 -8.62988 5.44531 -7.91504c4.72168 0.544922 12.0693 -3.26367 12.3613 6.13867
c0.213867 6.88574 0.668945 13.8467 -0.0585938 20.6592c-1.14746 10.7627 6.09473 9.44434 12.2451 8.82812c6.19922 -0.621094 15.627 4.06055 15.2705 -9.14746c-0.228516 -8.47754 -4.1123 -19.2197 2.13281 -25.0371
c5.53223 -5.15234 15.8594 -1.94922 23.9756 -1.55273c10.0488 0.490234 8.19434 -6.04297 8.17578 -11.7422c-0.0195312 -5.65137 1.98145 -12.791 -8.17188 -11.5049c-3.61914 0.458984 -7.43066 -0.411133 -11.002 0.208984
c-12.8711 2.23242 -16.4482 -3.28809 -15.8066 -15.6514c1.125 -21.6943 -2.40039 -18.459 19.4658 -18.792c3.21484 -0.0488281 6.43164 0.00390625 9.64844 -0.0107422zM186.935 279.311c-11.1455 9.65625 -10.751 16.7148 1.49023 25.542
c1.88281 1.3584 3.34668 2.62598 5.7832 0.697266c12.8662 -10.1826 25.8584 -20.2051 38.748 -30.3584c0.986328 -0.77832 1.5166 -2.13672 2.87109 -4.12305c-5.0957 -5.68652 -9.59863 -12.1279 -15.4814 -16.8467c-5.18945 -4.16309 -7.66016 2.78711 -10.7578 5.26855
c-7.82227 6.26855 -15.0693 13.249 -22.6533 19.8203zM376.528 303.794c11.4414 0.09375 7.62988 -7.81836 7.96289 -13.3662c0.34375 -5.69043 1.81543 -12.833 -8.19238 -11.7305c-3.18262 0.350586 -6.42969 0.134766 -9.64648 0.141602
c-16.0908 0.0273438 -19.8262 -5.31152 -16.3115 -21.4346c1.4668 -6.72559 6.03613 -4.31836 9.54199 -4.46191c24.4307 -0.996094 24.3174 -0.914062 24.2129 -25.8311c-0.177734 -41.8311 -0.134766 -83.6611 -0.294922 -125.491
c-0.0771484 -19.9893 -5.05469 -25.7676 -24.8633 -26.2842c-8.55957 -0.225586 -22.4561 -0.407227 -31.0186 -0.407227c-10.4658 0 -27.4492 0.272461 -37.9092 0.607422c-19.5908 0.632812 -24.7607 6.56934 -24.9502 26.5332
c-0.21875 22.9805 -0.0507812 45.9639 -0.0507812 68.9463h0.27832c0 22.9834 0.719727 45.999 -0.302734 68.9375c-0.515625 11.5342 3.73145 14.4814 13.9424 13.0752c3.1582 -0.435547 6.50781 0.397461 9.62891 -0.150391
c12.0742 -2.11621 14.3369 3.50293 14.0732 14.4697c-0.214844 8.93262 -2.39844 12.75 -11.4512 11.8887c-3.64062 -0.34668 -7.45898 0.599609 -11.0049 -0.0654297c-14.1836 -2.66016 -15.5195 5.21289 -14.9209 16.3887c0.368164 6.87012 3.0918 8.49512 9.2334 8.4502
c34.0137 -0.24707 68.0303 -0.495117 102.043 -0.21582zM322.845 267.278c0.280273 -4.74219 -3.63184 -12.8418 3.11816 -13.6992c7.84766 -0.996094 3 7.38965 4.94043 11.3799c-2.08008 4.44141 3.39648 12.7695 -4.75879 13.2119
c-6.29395 0.34082 -3.52051 -7.14453 -3.2998 -10.8926zM295.982 228.327c-6.25977 0.0556641 -6.25293 -3.35059 -6.21973 -7.79785c0.108398 -14.166 0.0400391 -28.332 0.0400391 -42.498c10.6338 12.5771 10.8359 27.583 12.0596 42.3604
c0.37207 4.50293 0.469727 7.87988 -5.87988 7.93555zM359.752 116.031v0c1.20117 12.8936 -7.44629 9.66309 -14.1709 9.83789c-6.88477 0.179688 -13.7773 0.0390625 -20.668 0.0488281c-7.80859 0.0078125 -15.6172 -0.0683594 -23.4248 0.0322266
c-6.43066 0.0820312 -13.207 1.46875 -11.9092 -9.15527c1.02539 -8.39746 -1.94141 -18.5635 11.9834 -18.4629c14.6963 0.107422 29.4248 0.521484 44.085 -0.245117c14.1885 -0.743164 13.21 8.34375 14.1045 17.9443zM355.291 228.06
c-4.9082 0.268555 -4.84961 -2.9541 -4.84668 -6.30078c0.00488281 -9.64941 -0.138672 -19.3018 0.0693359 -28.9453c0.0898438 -4.16699 0.791992 -9.36914 6.39062 -8.4502c4.95215 0.813477 2.44336 6.02246 2.77539 9.28516
c0.416016 4.09375 0.100586 8.26074 0.0927734 12.3965c-0.0078125 5.05469 0.0371094 10.1094 -0.0244141 15.1631c-0.0380859 3.16895 0.361328 6.58691 -4.45703 6.85156zM351.551 165.034v0.000976562c-14.8428 2.41797 -20.8037 10.3369 -21.2871 25.7715
c-0.316406 10.1064 -0.0517578 20.2305 -0.131836 30.3457c-0.0234375 3.13281 0.446289 7.02539 -4.45215 6.70117c-4.1123 -0.272461 -3.00488 -3.9043 -3.16699 -6.35742c-0.878906 -13.3174 -2.40332 -26.5547 -5.84473 -39.459
c-5.75 -21.5635 -6.50391 -21.8711 -26.0986 -14.3086c-1.66699 -18.4365 -1.66699 -18.4082 15.5752 -18.458c14.7129 -0.0419922 29.4238 -0.158203 44.1357 -0.25c4.70801 -0.0302734 9.22168 -0.469727 9.41211 6.63965
c0.166016 6.18457 -1.50781 8.29297 -8.1416 9.37402zM495.272 177.957c7.0957 0.21875 9.66309 -1.97754 9.52051 -9.31934c-0.455078 -23.3789 0.046875 -46.7773 -0.469727 -70.1533c-0.357422 -16.1602 -5.31836 -21.7812 -21.0449 -23.127
c-21.4717 -1.83887 -43.0283 -1.47949 -64.5322 0.304688c-12.8916 1.07031 -18.5918 8.65234 -18.6367 21.002c-0.0898438 24.3037 0.170898 48.6104 -0.143555 72.9092c-0.0849609 6.61523 2.08203 8.74512 8.64844 8.5625
c14.6621 -0.40625 29.3428 -0.126953 44.0156 -0.126953v-0.181641c14.2158 0 28.4404 -0.307617 42.6426 0.129883zM477.378 136.633c2.58594 14.4326 -3.33984 18.3408 -17.5977 17.8789c-32.4189 -1.04785 -32.4424 -0.298828 -32.4277 -34.4658
c0.00976562 -21.7783 0.00976562 -21.8447 20.7188 -21.7803c30.4883 0.0957031 29.4395 -4.06445 29.2383 30.1104c0 2.75586 -0.40918 5.58594 0.0683594 8.25684z" />
    <glyph glyph-name="social-youtube" unicode="&#xf122;" 
d="M485.688 152.952v-150.928c0 -9.43945 -1.97949 -18.0391 -5.99414 -25.9326c-3.35352 -6.66699 -10.6816 -16.0127 -16.3574 -20.8594c-5.8916 -5.06641 -16.5859 -11.374 -23.8701 -14.0781c-9.08789 -3.41797 -18.8525 -5.1543 -29.3779 -5.1543h-308.502
c-10.2803 0 -19.9639 1.73633 -29.0244 5.1543c-7.29785 2.69336 -18.0039 9.00098 -23.8975 14.0781c-5.64648 4.87402 -12.9863 14.2188 -16.3848 20.8594c-3.2959 6.59082 -5.9707 17.9189 -5.9707 25.2881c0 0.177734 0.000976562 0.466797 0.00390625 0.644531v150.928
c0 8.95215 1.97949 17.4961 5.99414 25.6074c4.01465 8.1377 9.54883 15.1631 16.3838 20.9678c6.86328 5.83203 14.8379 10.5791 23.8984 14.1055c9.05957 3.52637 18.7441 5.31641 29.0244 5.31641h308.502c16.6416 -0.0273438 40.4971 -8.72852 53.248 -19.4219
c6.91699 -5.83203 12.3428 -12.8574 16.3574 -20.9678c4.01465 -8.11133 5.9668 -16.6553 5.9668 -25.6074zM122.256 -14.8213v159.202h37.8408v24.0605h-102.156v-23.3828h32.7412v-159.88h31.5742zM137.69 355.528l-42.2891 92.4717h36.8096l21.0498 -69.1162
l20.9688 69.1162h36.7549l-39.6035 -92.4717v-107.689h-33.6904v107.689zM237.106 120.998h-31.6016v-84.9854c0 -6.15723 0.0546875 -10.9316 0.298828 -14.2139c0.216797 -3.36328 -0.244141 -5.47949 -1.38379 -6.37402
c-0.949219 -3.66211 -3.60742 -6.34766 -8.1377 -8.08398c-4.36719 -1.68164 -7.75781 0.705078 -10.1172 7.40527c-0.488281 0.895508 -0.542969 3.14648 -0.298828 6.67285c0.216797 3.58105 0.298828 8.21973 0.298828 13.9697l-0.651367 85.6094h-31.6289
l0.732422 -84.2803c0 -6.61816 -0.163086 -12.1523 -0.379883 -16.6279s-0.163086 -7.83887 0.379883 -10.1445l1.3291 -11.8818c0.382812 -3.72461 3.32422 -8.26953 6.56445 -10.1445c3.15234 -1.91895 8.70605 -3.47656 12.3965 -3.47656
c0.120117 0 0.314453 0.00195312 0.43457 0.00390625c4.99023 0 9.81934 0.841797 14.4844 2.46875c4.74707 1.62793 9.0332 3.8252 13.0479 6.64551c3.9873 2.84863 6.94434 5.94141 8.73438 9.1416l-0.624023 -16.8174l26.1221 -0.678711v135.792zM208.19 341.396
c0 12.6133 1.2207 23.084 3.44531 31.249c2.82129 8.51758 7.24219 14.5938 13.4541 18.2832c6.21191 4.58398 14.1055 6.88965 23.7354 6.88965c8.46289 0 15.5156 -1.41113 21.3213 -4.12305c5.69629 -2.30566 10.416 -6.29297 14.0781 -12.0439
c2.7666 -4.17773 4.85547 -8.81641 6.21191 -14.1328c1.30176 -5.72363 2.03418 -13.4004 2.03418 -23.0566v-36.0508c0 -13.1016 -0.732422 -22.4873 -2.03418 -28.2646c-0.542969 -5.23535 -2.76758 -11.0947 -6.94434 -17.5234
c-4.0957 -5.69629 -8.54492 -9.49414 -13.3457 -11.3389c-4.92188 -2.26562 -13.3135 -4.10449 -18.7314 -4.10449c-0.250977 0 -0.657227 0.00390625 -0.908203 0.00878906c-7.48633 0 -14.458 1.13965 -20.5879 3.44531c-4.63379 1.30176 -10.333 5.75 -12.7227 9.92773
c-2.68262 3.93945 -5.79297 10.8906 -6.94434 15.5156c-1.3291 6.23926 -2.06152 15.543 -2.06152 28.1836v37.1357zM236.401 285.354c0 -3.66211 1.38379 -6.94434 4.15039 -9.81934c2.25098 -2.3252 6.7041 -4.21289 9.94043 -4.21289
c3.1748 0 7.56836 1.82617 9.80762 4.07715c2.35156 2.16211 4.26074 6.50977 4.26074 9.70508c0 0.0693359 -0.000976562 0.180664 -0.00195312 0.25v74.623c0.00195312 0.09375 0.00390625 0.246094 0.00390625 0.339844c0 3.28516 -1.91016 7.81152 -4.2627 10.1035
c-2.18848 2.35938 -6.5752 4.30371 -9.79297 4.34082c-3.2168 -0.0234375 -7.5918 -1.96777 -9.76465 -4.34082c-2.39746 -2.30957 -4.34277 -6.88574 -4.34277 -10.2148c0 -0.0625 0.000976562 -0.165039 0.00195312 -0.228516v-74.623zM339.208 24.0234v70.5
c0 13.5088 -4.77344 23.165 -14.376 28.8613c-2.76367 1.5293 -7.56934 2.76953 -10.7275 2.76953c-0.0859375 0 -0.226562 -0.000976562 -0.3125 -0.00195312c-7.5957 0 -16.2764 -3.55371 -26.123 -10.6611v52.9502h-31.6279v-181.906l26.1494 0.678711l2.03418 11.3379
c8.49023 -7.13379 16.167 -11.4736 22.8672 -13.0742c6.80859 -1.57324 12.4775 -0.949219 17.1973 1.92578c4.71973 2.82129 8.38184 7.51367 10.9863 14.1055c2.60352 6.51074 3.93262 14.0781 3.93262 22.5146zM301.097 108.602
c3.66211 0 6.86328 -1.08496 9.76562 -3.28223c2.84766 -2.16992 4.28516 -4.63867 4.28516 -7.35059v-79.8047c0 -2.73926 -1.4375 -5.09961 -4.28516 -7.18848c-2.38086 -1.72168 -6.69727 -3.12012 -9.63574 -3.12012
c-0.0361328 0 -0.09375 0.000976562 -0.129883 0.000976562c-0.0488281 -0.000976562 -0.12793 -0.000976562 -0.176758 -0.000976562c-2.95312 0 -7.29785 1.39746 -9.69727 3.12012c-2.82129 2.06152 -4.2041 4.44922 -4.2041 7.18848v79.8047
c0 2.73926 1.41016 5.18066 4.2041 7.35059c2.36328 1.8125 6.69727 3.2832 9.6748 3.2832c0.0556641 0 0.144531 0 0.199219 -0.000976562zM315.826 261.944c-0.699219 1.50293 -1.45215 4.05469 -1.68164 5.69629c-0.193359 1.58496 -0.679688 4.125 -1.08496 5.66895
c-0.365234 2.28027 -0.661133 6.00488 -0.661133 8.31348c0 0.28125 0.00390625 0.737305 0.00976562 1.01758v109.616h29.5674v-109.317c0 -2.79395 1.00293 -5.12695 3.06543 -7.24316c1.82324 -1.71094 5.33301 -3.10059 7.83398 -3.10059
c0.121094 0 0.317383 0.00390625 0.438477 0.00878906c3.22852 0 5.96777 1.05762 8.24707 3.0918c1.91602 1.54004 3.49609 4.78516 3.52637 7.24316v109.317h27.4238v-140.295h-34.9922l0.624023 11.3379c-3.22852 -4.55664 -6.2666 -8.1377 -9.27734 -10.6328
c-3.01367 -1.90234 -8.35156 -3.44531 -11.915 -3.44531h-0.128906c-0.234375 -0.0078125 -0.614258 -0.015625 -0.848633 -0.015625c-3.64453 0 -9.12207 1.55078 -12.2256 3.46094c-2.7998 2.03613 -6.34863 6.19238 -7.9209 9.27734zM438.923 32.9209h-23.6807v-15.4346
c0 -3.68945 -1.3291 -6.51074 -3.95996 -8.57227c-2.1875 -1.69531 -6.20801 -3.07129 -8.97559 -3.07129c-0.121094 0 -0.316406 0.00292969 -0.4375 0.00585938h-4.91016c-0.147461 -0.00585938 -0.388672 -0.0107422 -0.536133 -0.0107422
c-2.65918 0 -6.47754 1.37793 -8.52344 3.07617c-2.02832 1.76367 -3.67383 5.37695 -3.67383 8.06445c0 0.140625 0.00488281 0.367188 0.0117188 0.507812v32.6865h54.6855v18.9062c0 7.08008 -0.108398 13.916 -0.352539 20.4258
c-0.0332031 4.2627 -0.786133 11.1045 -1.68164 15.2725c-0.62207 5.10645 -4.41309 11.8271 -8.46289 15c-4.03125 3.22461 -11.4072 6.67578 -16.4658 7.7041c-3.13965 0.708984 -8.30176 1.28516 -11.5205 1.28516c-2.15527 0 -5.63477 -0.259766 -7.76562 -0.580078
c-6.51074 -0.921875 -12.126 -3.06543 -17.0352 -6.50977c-6.13086 -4.12402 -10.5791 -9.76562 -13.373 -16.8994c-2.7666 -7.05273 -4.12305 -16.9268 -4.12305 -29.5674v-42.3164c0 -17.8213 4.74707 -30.5977 14.1318 -38.1387
c8.68066 -7.08008 17.8223 -10.6611 27.4521 -10.6611h2.82031c10.7969 0.651367 20.291 5.2627 28.5635 13.7529c6.18555 6.18457 9.27734 14.3496 9.27734 24.3867c-0.352539 3.25488 -0.732422 6.83496 -1.46484 10.6875zM414.51 73.2295h-30.2451l0.677734 16.791
c0 3.68945 1.38379 6.67285 4.12305 9.1416c2.28613 2.00879 6.61035 3.63867 9.65332 3.63867c0.0976562 0 0.257812 -0.00195312 0.356445 -0.00390625h1.38379c4.06836 0 7.56738 -1.16699 10.4697 -3.44531c2.38477 -1.90137 4.31934 -5.91992 4.31934 -8.96973
c0 -0.0996094 -0.00292969 -0.261719 -0.00585938 -0.361328z" />
    <glyph glyph-name="speech" unicode="&#xf123;" 
d="M204.8 430.438c112.931 0 204.8 -76.3223 204.8 -170.154c0 -93.833 -91.8691 -170.172 -204.8 -170.172c-29.5762 0 -58.2998 5.25586 -85.4189 15.6152l-71.9697 -48.3154c-1.19238 -0.801758 -3.3252 -1.45215 -4.76172 -1.45215
c-4.71094 0 -8.53418 3.82324 -8.53418 8.5332c0 1.11523 0.40625 2.82812 0.905273 3.82422l32.8877 65.7754c-43.2637 32.3418 -67.9082 77.9609 -67.9082 126.174c0 93.833 91.8701 170.172 204.8 170.172z" />
    <glyph glyph-name="three-dots" unicode="&#xf124;" 
d="M256 311.467c-37.6406 0 -68.2666 30.626 -68.2666 68.2666s30.626 68.2666 68.2666 68.2666s68.2666 -30.626 68.2666 -68.2666s-30.626 -68.2666 -68.2666 -68.2666zM256 72.5332c37.6406 0 68.2666 -30.626 68.2666 -68.2666s-30.626 -68.2666 -68.2666 -68.2666
s-68.2666 30.626 -68.2666 68.2666s30.626 68.2666 68.2666 68.2666zM256 260.267c37.6406 0 68.2666 -30.626 68.2666 -68.2666s-30.626 -68.2666 -68.2666 -68.2666s-68.2666 30.626 -68.2666 68.2666s30.626 68.2666 68.2666 68.2666z" />
  </font>
</defs>
</svg>
